<svg width="32" height="32" viewBox="0 0 32 32" fill="none" xmlns="http://www.w3.org/2000/svg">
  <!-- Pin/Marker Shape Background -->
  <path d="M16 2C11.589 2 8 5.589 8 10c0 6 8 18 8 18s8-12 8-18c0-4.411-3.589-8-8-8z" fill="#1a1a1a"/>
  
  <!-- 'hd' text in pin -->
  <g transform="translate(11, 7)">
    <!-- h -->
    <path d="M0 0v8M0 4h3M3 4v4" stroke="#d4af37" stroke-width="1.2" stroke-linecap="round"/>
    <!-- d -->
    <path d="M6 2v6M6 2h2c1.1 0 2 .9 2 2v2c0 1.1-.9 2-2 2H6" stroke="#d4af37" stroke-width="1.2" stroke-linecap="round"/>
  </g>
  
  <!-- Pin point -->
  <circle cx="16" cy="20" r="1.5" fill="#1a1a1a"/>
</svg>
